<mxfile host="app.diagrams.net" agent="Mozilla/5.0 (Windows NT 10.0; Win64; x64) AppleWebKit/537.36 (KHTML, like Gecko) Chrome/134.0.0.0 Safari/537.36" version="26.1.3">
  <diagram name="第 1 页" id="FliHqaYI9Ld0SkWBHxA6">
    <mxGraphModel dx="2074" dy="1098" grid="1" gridSize="10" guides="1" tooltips="1" connect="1" arrows="1" fold="1" page="1" pageScale="1" pageWidth="827" pageHeight="1169" math="0" shadow="0">
      <root>
        <mxCell id="0" />
        <mxCell id="1" parent="0" />
        <mxCell id="Ry1poMvAks46-VjdKIyW-1" value="&lt;i&gt;O&lt;sub&gt;11&lt;/sub&gt;&lt;/i&gt;" style="text;strokeColor=none;align=center;fillColor=none;html=1;verticalAlign=middle;whiteSpace=wrap;rounded=0;fontSize=12;fontFamily=Times New Roman;" vertex="1" parent="1">
          <mxGeometry x="160" y="650" width="40" height="30" as="geometry" />
        </mxCell>
        <mxCell id="Ry1poMvAks46-VjdKIyW-2" value="&lt;i&gt;O&lt;span&gt;&lt;sub&gt;12&lt;/sub&gt;&lt;/span&gt;&lt;/i&gt;" style="text;strokeColor=none;align=center;fillColor=none;html=1;verticalAlign=middle;whiteSpace=wrap;rounded=0;fontSize=12;fontFamily=Times New Roman;" vertex="1" parent="1">
          <mxGeometry x="280" y="650" width="40" height="30" as="geometry" />
        </mxCell>
        <mxCell id="Ry1poMvAks46-VjdKIyW-3" value="&lt;i&gt;O&lt;sub&gt;13&lt;/sub&gt;&lt;/i&gt;" style="text;strokeColor=none;align=center;fillColor=none;html=1;verticalAlign=middle;whiteSpace=wrap;rounded=0;fontSize=12;fontFamily=Times New Roman;" vertex="1" parent="1">
          <mxGeometry x="360" y="650" width="40" height="30" as="geometry" />
        </mxCell>
        <mxCell id="Ry1poMvAks46-VjdKIyW-4" value="&lt;i&gt;O&lt;sub&gt;33&lt;/sub&gt;&lt;/i&gt;" style="text;strokeColor=none;align=center;fillColor=none;html=1;verticalAlign=middle;whiteSpace=wrap;rounded=0;fontSize=12;fontFamily=Times New Roman;" vertex="1" parent="1">
          <mxGeometry x="440" y="650" width="40" height="30" as="geometry" />
        </mxCell>
        <mxCell id="Ry1poMvAks46-VjdKIyW-5" value="&lt;i&gt;O&lt;sub&gt;32&lt;/sub&gt;&lt;/i&gt;" style="text;strokeColor=none;align=center;fillColor=none;html=1;verticalAlign=middle;whiteSpace=wrap;rounded=0;fontSize=12;fontFamily=Times New Roman;" vertex="1" parent="1">
          <mxGeometry x="400" y="650" width="40" height="30" as="geometry" />
        </mxCell>
        <mxCell id="Ry1poMvAks46-VjdKIyW-6" value="&lt;i&gt;O&lt;sub&gt;31&lt;/sub&gt;&lt;/i&gt;" style="text;strokeColor=none;align=center;fillColor=none;html=1;verticalAlign=middle;whiteSpace=wrap;rounded=0;fontSize=12;fontFamily=Times New Roman;" vertex="1" parent="1">
          <mxGeometry x="240" y="650" width="40" height="30" as="geometry" />
        </mxCell>
        <mxCell id="Ry1poMvAks46-VjdKIyW-7" value="&lt;i&gt;O&lt;span&gt;&lt;sub&gt;21&lt;/sub&gt;&lt;/span&gt;&lt;/i&gt;" style="text;strokeColor=none;align=center;fillColor=none;html=1;verticalAlign=middle;whiteSpace=wrap;rounded=0;fontSize=12;fontFamily=Times New Roman;" vertex="1" parent="1">
          <mxGeometry x="200" y="650" width="40" height="30" as="geometry" />
        </mxCell>
        <mxCell id="Ry1poMvAks46-VjdKIyW-8" value="&lt;i&gt;O&lt;span&gt;&lt;sub&gt;23&lt;/sub&gt;&lt;/span&gt;&lt;/i&gt;" style="text;strokeColor=none;align=center;fillColor=none;html=1;verticalAlign=middle;whiteSpace=wrap;rounded=0;fontSize=12;fontFamily=Times New Roman;" vertex="1" parent="1">
          <mxGeometry x="480" y="650" width="40" height="30" as="geometry" />
        </mxCell>
        <mxCell id="Ry1poMvAks46-VjdKIyW-9" value="&lt;i&gt;O&lt;span&gt;&lt;sub&gt;22&lt;/sub&gt;&lt;/span&gt;&lt;/i&gt;" style="text;strokeColor=none;align=center;fillColor=none;html=1;verticalAlign=middle;whiteSpace=wrap;rounded=0;fontSize=12;fontFamily=Times New Roman;" vertex="1" parent="1">
          <mxGeometry x="320" y="650" width="40" height="30" as="geometry" />
        </mxCell>
        <mxCell id="Ry1poMvAks46-VjdKIyW-10" value="OS" style="text;html=1;align=center;verticalAlign=middle;resizable=0;points=[];autosize=1;strokeColor=none;fillColor=none;fontFamily=Times New Roman;" vertex="1" parent="1">
          <mxGeometry x="120" y="685" width="40" height="30" as="geometry" />
        </mxCell>
        <mxCell id="Ry1poMvAks46-VjdKIyW-11" value="MA" style="text;html=1;align=center;verticalAlign=middle;resizable=0;points=[];autosize=1;strokeColor=none;fillColor=none;fontFamily=Times New Roman;" vertex="1" parent="1">
          <mxGeometry x="120" y="765" width="40" height="30" as="geometry" />
        </mxCell>
        <mxCell id="Ry1poMvAks46-VjdKIyW-12" value="RA" style="text;html=1;align=center;verticalAlign=middle;resizable=0;points=[];autosize=1;strokeColor=none;fillColor=none;fontFamily=Times New Roman;" vertex="1" parent="1">
          <mxGeometry x="120" y="845" width="40" height="30" as="geometry" />
        </mxCell>
        <mxCell id="Ry1poMvAks46-VjdKIyW-13" value="&lt;i&gt;Job&lt;sub&gt;1&lt;/sub&gt;&lt;/i&gt;" style="text;strokeColor=none;align=center;fillColor=none;html=1;verticalAlign=middle;whiteSpace=wrap;rounded=0;fontSize=12;fontFamily=Times New Roman;" vertex="1" parent="1">
          <mxGeometry x="520" y="810" width="40" height="30" as="geometry" />
        </mxCell>
        <mxCell id="Ry1poMvAks46-VjdKIyW-14" value="&lt;i&gt;Job&lt;sub&gt;3&lt;/sub&gt;&lt;/i&gt;" style="text;strokeColor=none;align=center;fillColor=none;html=1;verticalAlign=middle;whiteSpace=wrap;rounded=0;fontSize=12;fontFamily=Times New Roman;" vertex="1" parent="1">
          <mxGeometry x="600" y="810" width="40" height="30" as="geometry" />
        </mxCell>
        <mxCell id="Ry1poMvAks46-VjdKIyW-15" value="&lt;i&gt;Job&lt;span&gt;&lt;sub&gt;2&lt;/sub&gt;&lt;/span&gt;&lt;/i&gt;" style="text;strokeColor=none;align=center;fillColor=none;html=1;verticalAlign=middle;whiteSpace=wrap;rounded=0;fontSize=12;fontFamily=Times New Roman;" vertex="1" parent="1">
          <mxGeometry x="559" y="810" width="41" height="30" as="geometry" />
        </mxCell>
        <mxCell id="Ry1poMvAks46-VjdKIyW-16" style="rounded=0;orthogonalLoop=1;jettySize=auto;html=1;exitX=0.5;exitY=1;exitDx=0;exitDy=0;entryX=0.5;entryY=0;entryDx=0;entryDy=0;" edge="1" parent="1" source="Ry1poMvAks46-VjdKIyW-17" target="Ry1poMvAks46-VjdKIyW-34">
          <mxGeometry relative="1" as="geometry" />
        </mxCell>
        <mxCell id="Ry1poMvAks46-VjdKIyW-17" value="1" style="whiteSpace=wrap;html=1;aspect=fixed;fillColor=#8390CA;strokeColor=light-dark(#000000,#446E2C);strokeWidth=1;fontFamily=Times New Roman;" vertex="1" parent="1">
          <mxGeometry x="160" y="680" width="40" height="40" as="geometry" />
        </mxCell>
        <mxCell id="Ry1poMvAks46-VjdKIyW-18" style="rounded=0;orthogonalLoop=1;jettySize=auto;html=1;exitX=0.5;exitY=1;exitDx=0;exitDy=0;entryX=0.5;entryY=0;entryDx=0;entryDy=0;" edge="1" parent="1" source="Ry1poMvAks46-VjdKIyW-19" target="Ry1poMvAks46-VjdKIyW-36">
          <mxGeometry relative="1" as="geometry" />
        </mxCell>
        <mxCell id="Ry1poMvAks46-VjdKIyW-19" value="2" style="whiteSpace=wrap;html=1;aspect=fixed;fillColor=#C0E0DB;strokeColor=light-dark(#000000,#446E2C);strokeWidth=1;fontFamily=Times New Roman;" vertex="1" parent="1">
          <mxGeometry x="200" y="680" width="40" height="40" as="geometry" />
        </mxCell>
        <mxCell id="Ry1poMvAks46-VjdKIyW-20" style="rounded=0;orthogonalLoop=1;jettySize=auto;html=1;exitX=0.5;exitY=1;exitDx=0;exitDy=0;entryX=0.5;entryY=0;entryDx=0;entryDy=0;" edge="1" parent="1" source="Ry1poMvAks46-VjdKIyW-21" target="Ry1poMvAks46-VjdKIyW-35">
          <mxGeometry relative="1" as="geometry" />
        </mxCell>
        <mxCell id="Ry1poMvAks46-VjdKIyW-21" value="1" style="whiteSpace=wrap;html=1;aspect=fixed;fillColor=#8390CA;strokeColor=light-dark(#000000,#446E2C);strokeWidth=1;fontFamily=Times New Roman;" vertex="1" parent="1">
          <mxGeometry x="280" y="680" width="40" height="40" as="geometry" />
        </mxCell>
        <mxCell id="Ry1poMvAks46-VjdKIyW-22" style="rounded=0;orthogonalLoop=1;jettySize=auto;html=1;exitX=0.5;exitY=1;exitDx=0;exitDy=0;entryX=0.5;entryY=0;entryDx=0;entryDy=0;" edge="1" parent="1" source="Ry1poMvAks46-VjdKIyW-23" target="Ry1poMvAks46-VjdKIyW-38">
          <mxGeometry relative="1" as="geometry" />
        </mxCell>
        <mxCell id="Ry1poMvAks46-VjdKIyW-23" value="3" style="whiteSpace=wrap;html=1;aspect=fixed;fillColor=#F7A7A6;strokeColor=light-dark(#000000,#446E2C);strokeWidth=1;fontFamily=Times New Roman;" vertex="1" parent="1">
          <mxGeometry x="240" y="680" width="40" height="40" as="geometry" />
        </mxCell>
        <mxCell id="Ry1poMvAks46-VjdKIyW-24" style="rounded=0;orthogonalLoop=1;jettySize=auto;html=1;exitX=0.5;exitY=1;exitDx=0;exitDy=0;entryX=0.5;entryY=0;entryDx=0;entryDy=0;" edge="1" parent="1" source="Ry1poMvAks46-VjdKIyW-25" target="Ry1poMvAks46-VjdKIyW-41">
          <mxGeometry relative="1" as="geometry" />
        </mxCell>
        <mxCell id="Ry1poMvAks46-VjdKIyW-25" value="3" style="whiteSpace=wrap;html=1;aspect=fixed;fillColor=#F7A7A6;strokeColor=light-dark(#000000,#446E2C);strokeWidth=1;fontFamily=Times New Roman;" vertex="1" parent="1">
          <mxGeometry x="400" y="680" width="40" height="40" as="geometry" />
        </mxCell>
        <mxCell id="Ry1poMvAks46-VjdKIyW-26" style="rounded=0;orthogonalLoop=1;jettySize=auto;html=1;exitX=0.5;exitY=1;exitDx=0;exitDy=0;entryX=0.5;entryY=0;entryDx=0;entryDy=0;" edge="1" parent="1" source="Ry1poMvAks46-VjdKIyW-27" target="Ry1poMvAks46-VjdKIyW-37">
          <mxGeometry relative="1" as="geometry" />
        </mxCell>
        <mxCell id="Ry1poMvAks46-VjdKIyW-27" value="1" style="whiteSpace=wrap;html=1;aspect=fixed;fillColor=#8390CA;strokeColor=light-dark(#000000,#446E2C);strokeWidth=1;fontFamily=Times New Roman;" vertex="1" parent="1">
          <mxGeometry x="360" y="680" width="40" height="40" as="geometry" />
        </mxCell>
        <mxCell id="Ry1poMvAks46-VjdKIyW-28" style="rounded=0;orthogonalLoop=1;jettySize=auto;html=1;exitX=0.5;exitY=1;exitDx=0;exitDy=0;entryX=0.5;entryY=0;entryDx=0;entryDy=0;" edge="1" parent="1" source="Ry1poMvAks46-VjdKIyW-29" target="Ry1poMvAks46-VjdKIyW-40">
          <mxGeometry relative="1" as="geometry" />
        </mxCell>
        <mxCell id="Ry1poMvAks46-VjdKIyW-29" value="2" style="whiteSpace=wrap;html=1;aspect=fixed;fillColor=#C0E0DB;strokeColor=light-dark(#000000,#446E2C);strokeWidth=1;fontFamily=Times New Roman;" vertex="1" parent="1">
          <mxGeometry x="320" y="680" width="40" height="40" as="geometry" />
        </mxCell>
        <mxCell id="Ry1poMvAks46-VjdKIyW-30" style="rounded=0;orthogonalLoop=1;jettySize=auto;html=1;exitX=0.5;exitY=1;exitDx=0;exitDy=0;entryX=0.5;entryY=0;entryDx=0;entryDy=0;" edge="1" parent="1" source="Ry1poMvAks46-VjdKIyW-31" target="Ry1poMvAks46-VjdKIyW-42">
          <mxGeometry relative="1" as="geometry" />
        </mxCell>
        <mxCell id="Ry1poMvAks46-VjdKIyW-31" value="3" style="whiteSpace=wrap;html=1;aspect=fixed;fillColor=#F7A7A6;strokeColor=light-dark(#000000,#446E2C);strokeWidth=1;fontFamily=Times New Roman;" vertex="1" parent="1">
          <mxGeometry x="440" y="680" width="40" height="40" as="geometry" />
        </mxCell>
        <mxCell id="Ry1poMvAks46-VjdKIyW-32" style="rounded=0;orthogonalLoop=1;jettySize=auto;html=1;exitX=0.5;exitY=1;exitDx=0;exitDy=0;entryX=0.5;entryY=0;entryDx=0;entryDy=0;" edge="1" parent="1" source="Ry1poMvAks46-VjdKIyW-33" target="Ry1poMvAks46-VjdKIyW-39">
          <mxGeometry relative="1" as="geometry" />
        </mxCell>
        <mxCell id="Ry1poMvAks46-VjdKIyW-33" value="2" style="whiteSpace=wrap;html=1;aspect=fixed;fillColor=#C0E0DB;strokeColor=light-dark(#000000,#446E2C);strokeWidth=1;fontFamily=Times New Roman;" vertex="1" parent="1">
          <mxGeometry x="480" y="680" width="40" height="40" as="geometry" />
        </mxCell>
        <mxCell id="Ry1poMvAks46-VjdKIyW-34" value="1" style="whiteSpace=wrap;html=1;aspect=fixed;fillColor=#8390CA;strokeColor=light-dark(#000000,#446E2C);strokeWidth=1;fontFamily=Times New Roman;" vertex="1" parent="1">
          <mxGeometry x="160" y="760" width="40" height="40" as="geometry" />
        </mxCell>
        <mxCell id="Ry1poMvAks46-VjdKIyW-35" value="2" style="whiteSpace=wrap;html=1;aspect=fixed;fillColor=#8390CA;strokeColor=light-dark(#000000,#446E2C);strokeWidth=1;fontFamily=Times New Roman;" vertex="1" parent="1">
          <mxGeometry x="200" y="760" width="40" height="40" as="geometry" />
        </mxCell>
        <mxCell id="Ry1poMvAks46-VjdKIyW-36" value="3" style="whiteSpace=wrap;html=1;aspect=fixed;fillColor=#C0E0DB;strokeColor=light-dark(#000000,#446E2C);strokeWidth=1;fontFamily=Times New Roman;" vertex="1" parent="1">
          <mxGeometry x="280" y="760" width="40" height="40" as="geometry" />
        </mxCell>
        <mxCell id="Ry1poMvAks46-VjdKIyW-37" value="2" style="whiteSpace=wrap;html=1;aspect=fixed;fillColor=#8390CA;strokeColor=light-dark(#000000,#446E2C);strokeWidth=1;fontFamily=Times New Roman;" vertex="1" parent="1">
          <mxGeometry x="240" y="760" width="40" height="40" as="geometry" />
        </mxCell>
        <mxCell id="Ry1poMvAks46-VjdKIyW-38" value="1" style="whiteSpace=wrap;html=1;aspect=fixed;fillColor=#F7A7A6;strokeColor=light-dark(#000000,#446E2C);strokeWidth=1;fontFamily=Times New Roman;" vertex="1" parent="1">
          <mxGeometry x="400" y="760" width="40" height="40" as="geometry" />
        </mxCell>
        <mxCell id="Ry1poMvAks46-VjdKIyW-39" value="2" style="whiteSpace=wrap;html=1;aspect=fixed;fillColor=#C0E0DB;strokeColor=light-dark(#000000,#446E2C);strokeWidth=1;fontFamily=Times New Roman;" vertex="1" parent="1">
          <mxGeometry x="360" y="760" width="40" height="40" as="geometry" />
        </mxCell>
        <mxCell id="Ry1poMvAks46-VjdKIyW-40" value="3" style="whiteSpace=wrap;html=1;aspect=fixed;fillColor=#C0E0DB;strokeColor=light-dark(#000000,#446E2C);strokeWidth=1;fontFamily=Times New Roman;" vertex="1" parent="1">
          <mxGeometry x="320" y="760" width="40" height="40" as="geometry" />
        </mxCell>
        <mxCell id="Ry1poMvAks46-VjdKIyW-41" value="3" style="whiteSpace=wrap;html=1;aspect=fixed;fillColor=#F7A7A6;strokeColor=light-dark(#000000,#446E2C);strokeWidth=1;fontFamily=Times New Roman;" vertex="1" parent="1">
          <mxGeometry x="440" y="760" width="40" height="40" as="geometry" />
        </mxCell>
        <mxCell id="Ry1poMvAks46-VjdKIyW-42" value="3" style="whiteSpace=wrap;html=1;aspect=fixed;fillColor=#F7A7A6;strokeColor=light-dark(#000000,#446E2C);strokeWidth=1;fontFamily=Times New Roman;" vertex="1" parent="1">
          <mxGeometry x="480" y="760" width="40" height="40" as="geometry" />
        </mxCell>
        <mxCell id="Ry1poMvAks46-VjdKIyW-43" value="2" style="whiteSpace=wrap;html=1;aspect=fixed;fillColor=#8390CA;strokeColor=light-dark(#000000,#446E2C);strokeWidth=1;fontFamily=Times New Roman;" vertex="1" parent="1">
          <mxGeometry x="160.5" y="840" width="40" height="40" as="geometry" />
        </mxCell>
        <mxCell id="Ry1poMvAks46-VjdKIyW-44" value="2" style="whiteSpace=wrap;html=1;aspect=fixed;fillColor=#C0E0DB;strokeColor=light-dark(#000000,#446E2C);strokeWidth=1;fontFamily=Times New Roman;" vertex="1" parent="1">
          <mxGeometry x="200.5" y="840" width="40" height="40" as="geometry" />
        </mxCell>
        <mxCell id="Ry1poMvAks46-VjdKIyW-45" value="1" style="whiteSpace=wrap;html=1;aspect=fixed;fillColor=#8390CA;strokeColor=light-dark(#000000,#446E2C);strokeWidth=1;fontFamily=Times New Roman;" vertex="1" parent="1">
          <mxGeometry x="280.5" y="840" width="40" height="40" as="geometry" />
        </mxCell>
        <mxCell id="Ry1poMvAks46-VjdKIyW-46" value="1" style="whiteSpace=wrap;html=1;aspect=fixed;fillColor=#F7A7A6;strokeColor=light-dark(#000000,#446E2C);strokeWidth=1;fontFamily=Times New Roman;" vertex="1" parent="1">
          <mxGeometry x="240.5" y="840" width="40" height="40" as="geometry" />
        </mxCell>
        <mxCell id="Ry1poMvAks46-VjdKIyW-47" value="1" style="whiteSpace=wrap;html=1;aspect=fixed;fillColor=#F7A7A6;strokeColor=light-dark(#000000,#446E2C);strokeWidth=1;fontFamily=Times New Roman;" vertex="1" parent="1">
          <mxGeometry x="400.5" y="840" width="40" height="40" as="geometry" />
        </mxCell>
        <mxCell id="Ry1poMvAks46-VjdKIyW-48" value="1" style="whiteSpace=wrap;html=1;aspect=fixed;fillColor=#8390CA;strokeColor=light-dark(#000000,#446E2C);strokeWidth=1;fontFamily=Times New Roman;" vertex="1" parent="1">
          <mxGeometry x="360.5" y="840" width="40" height="40" as="geometry" />
        </mxCell>
        <mxCell id="Ry1poMvAks46-VjdKIyW-49" value="2" style="whiteSpace=wrap;html=1;aspect=fixed;fillColor=#C0E0DB;strokeColor=light-dark(#000000,#446E2C);strokeWidth=1;fontFamily=Times New Roman;" vertex="1" parent="1">
          <mxGeometry x="320.5" y="840" width="40" height="40" as="geometry" />
        </mxCell>
        <mxCell id="Ry1poMvAks46-VjdKIyW-50" value="1" style="whiteSpace=wrap;html=1;aspect=fixed;fillColor=#F7A7A6;strokeColor=light-dark(#000000,#446E2C);strokeWidth=1;fontFamily=Times New Roman;" vertex="1" parent="1">
          <mxGeometry x="440.5" y="840" width="40" height="40" as="geometry" />
        </mxCell>
        <mxCell id="Ry1poMvAks46-VjdKIyW-51" value="1" style="whiteSpace=wrap;html=1;aspect=fixed;fillColor=#C0E0DB;strokeColor=light-dark(#000000,#446E2C);strokeWidth=1;fontFamily=Times New Roman;" vertex="1" parent="1">
          <mxGeometry x="480.5" y="840" width="40" height="40" as="geometry" />
        </mxCell>
        <mxCell id="Ry1poMvAks46-VjdKIyW-52" value="2" style="whiteSpace=wrap;html=1;aspect=fixed;fillColor=#8390CA;strokeColor=light-dark(#000000,#446E2C);strokeWidth=1;fontFamily=Times New Roman;" vertex="1" parent="1">
          <mxGeometry x="520" y="840" width="40" height="40" as="geometry" />
        </mxCell>
        <mxCell id="Ry1poMvAks46-VjdKIyW-53" value="1" style="whiteSpace=wrap;html=1;aspect=fixed;fillColor=#F7A7A6;strokeColor=light-dark(#000000,#446E2C);strokeWidth=1;fontFamily=Times New Roman;" vertex="1" parent="1">
          <mxGeometry x="600" y="840" width="40" height="40" as="geometry" />
        </mxCell>
        <mxCell id="Ry1poMvAks46-VjdKIyW-54" value="2" style="whiteSpace=wrap;html=1;aspect=fixed;fillColor=#C0E0DB;strokeColor=light-dark(#000000,#446E2C);strokeWidth=1;fontFamily=Times New Roman;" vertex="1" parent="1">
          <mxGeometry x="560" y="840" width="40" height="40" as="geometry" />
        </mxCell>
        <mxCell id="Ry1poMvAks46-VjdKIyW-55" value="&lt;i&gt;O&lt;sub&gt;11&lt;/sub&gt;&lt;/i&gt;" style="text;strokeColor=none;align=center;fillColor=none;html=1;verticalAlign=middle;whiteSpace=wrap;rounded=0;fontSize=12;fontFamily=Times New Roman;" vertex="1" parent="1">
          <mxGeometry x="160" y="810" width="40" height="30" as="geometry" />
        </mxCell>
        <mxCell id="Ry1poMvAks46-VjdKIyW-56" value="&lt;i&gt;O&lt;span&gt;&lt;sub&gt;12&lt;/sub&gt;&lt;/span&gt;&lt;/i&gt;" style="text;strokeColor=none;align=center;fillColor=none;html=1;verticalAlign=middle;whiteSpace=wrap;rounded=0;fontSize=12;fontFamily=Times New Roman;" vertex="1" parent="1">
          <mxGeometry x="280" y="810" width="40" height="30" as="geometry" />
        </mxCell>
        <mxCell id="Ry1poMvAks46-VjdKIyW-57" value="&lt;i&gt;O&lt;sub&gt;13&lt;/sub&gt;&lt;/i&gt;" style="text;strokeColor=none;align=center;fillColor=none;html=1;verticalAlign=middle;whiteSpace=wrap;rounded=0;fontSize=12;fontFamily=Times New Roman;" vertex="1" parent="1">
          <mxGeometry x="360" y="810" width="40" height="30" as="geometry" />
        </mxCell>
        <mxCell id="Ry1poMvAks46-VjdKIyW-58" value="&lt;i&gt;O&lt;sub&gt;33&lt;/sub&gt;&lt;/i&gt;" style="text;strokeColor=none;align=center;fillColor=none;html=1;verticalAlign=middle;whiteSpace=wrap;rounded=0;fontSize=12;fontFamily=Times New Roman;" vertex="1" parent="1">
          <mxGeometry x="440" y="810" width="40" height="30" as="geometry" />
        </mxCell>
        <mxCell id="Ry1poMvAks46-VjdKIyW-59" value="&lt;i&gt;O&lt;sub&gt;32&lt;/sub&gt;&lt;/i&gt;" style="text;strokeColor=none;align=center;fillColor=none;html=1;verticalAlign=middle;whiteSpace=wrap;rounded=0;fontSize=12;fontFamily=Times New Roman;" vertex="1" parent="1">
          <mxGeometry x="400" y="810" width="40" height="30" as="geometry" />
        </mxCell>
        <mxCell id="Ry1poMvAks46-VjdKIyW-60" value="&lt;i&gt;O&lt;sub&gt;31&lt;/sub&gt;&lt;/i&gt;" style="text;strokeColor=none;align=center;fillColor=none;html=1;verticalAlign=middle;whiteSpace=wrap;rounded=0;fontSize=12;fontFamily=Times New Roman;" vertex="1" parent="1">
          <mxGeometry x="240" y="810" width="40" height="30" as="geometry" />
        </mxCell>
        <mxCell id="Ry1poMvAks46-VjdKIyW-61" value="&lt;i&gt;O&lt;span&gt;&lt;sub&gt;21&lt;/sub&gt;&lt;/span&gt;&lt;/i&gt;" style="text;strokeColor=none;align=center;fillColor=none;html=1;verticalAlign=middle;whiteSpace=wrap;rounded=0;fontSize=12;fontFamily=Times New Roman;" vertex="1" parent="1">
          <mxGeometry x="200" y="810" width="40" height="30" as="geometry" />
        </mxCell>
        <mxCell id="Ry1poMvAks46-VjdKIyW-62" value="&lt;i&gt;O&lt;span&gt;&lt;sub&gt;23&lt;/sub&gt;&lt;/span&gt;&lt;/i&gt;" style="text;strokeColor=none;align=center;fillColor=none;html=1;verticalAlign=middle;whiteSpace=wrap;rounded=0;fontSize=12;fontFamily=Times New Roman;" vertex="1" parent="1">
          <mxGeometry x="480" y="810" width="40" height="30" as="geometry" />
        </mxCell>
        <mxCell id="Ry1poMvAks46-VjdKIyW-63" value="&lt;i&gt;O&lt;span&gt;&lt;sub&gt;22&lt;/sub&gt;&lt;/span&gt;&lt;/i&gt;" style="text;strokeColor=none;align=center;fillColor=none;html=1;verticalAlign=middle;whiteSpace=wrap;rounded=0;fontSize=12;fontFamily=Times New Roman;" vertex="1" parent="1">
          <mxGeometry x="320" y="810" width="40" height="30" as="geometry" />
        </mxCell>
      </root>
    </mxGraphModel>
  </diagram>
</mxfile>
